<svg height="512pt" viewBox="-54 0 512 512" width="512pt" xmlns="http://www.w3.org/2000/svg"><path d="m54 264.285156v211.714844c0 14.359375 11.640625 26 26 26s26-11.640625 26-26v-211.714844zm0 0" fill="#72d8ff"/><path d="m158 264.285156v211.714844c0 14.359375-11.640625 26-26 26s-26-11.640625-26-26v-211.714844zm0 0" fill="#72d8ff"/><path d="m235 502h118.609375l40.390625-184h-199.390625zm0 0" fill="#fff"/><path d="m106 10c-24.300781 0-44 19.699219-44 44v8c0 24.300781 19.699219 44 44 44s44-19.699219 44-44v-8c0-24.300781-19.699219-44-44-44zm0 0" fill="#ffd5ab"/><g fill="#62cd4d"><path d="m54 106h104v158.285156h-104zm0 0"/><path d="m101.957031 106h33.042969c37.003906 0 67 29.996094 67 67v22.832031h25.640625c12.171875 0 22.042969 9.867188 22.042969 22.042969 0 12.171875-9.871094 22.042969-22.042969 22.042969h-52.136719c-9.667968 0-17.503906-7.835938-17.503906-17.503907v-16.503906"/><path d="m109.945312 106h-32.945312c-37.003906 0-67 29.996094-67 67v113.339844c0 12.144531 9.847656 21.992187 21.992188 21.992187 12.148437 0 21.996093-9.847656 21.996093-21.992187v-63.839844"/></g><path d="m244.757812 326 28-28 28 28-28 28zm0 0" fill="#ffc66c"/><path d="m280.761719 409.667969h40v40h-40zm0 0" fill="#ffc66c"/><path d="m227.640625 249.917969c17.667969 0 32.042969-14.375 32.042969-32.042969s-14.375-32.042969-32.042969-32.042969h-15.640625v-12.832031c0-38.339844-28.167969-70.214844-64.894531-76.039062 8.03125-9.429688 12.894531-21.636719 12.894531-34.960938v-8c0-29.773438-24.226562-54-54-54s-54 24.226562-54 54v8c0 13.324219 4.863281 25.53125 12.894531 34.960938-36.726562 5.824218-64.894531 37.699218-64.894531 76.039062v113.339844c0 17.640625 14.351562 31.992187 31.992188 31.992187 4.246093 0 8.296874-.835937 12.007812-2.34375v21.007813c0 5.523437 4.476562 10 10 10s10-4.476563 10-10v-62.710938h84v201.714844c0 8.820312-7.179688 16-16 16s-16-7.179688-16-16v-150c0-5.523438-4.476562-10-10-10s-10 4.476562-10 10v150c0 8.820312-7.179688 16-16 16s-16-7.179688-16-16v-58.332031c0-5.523438-4.476562-10-10-10s-10 4.476562-10 10v58.332031c0 19.851562 16.148438 36 36 36 10.214844 0 19.441406-4.28125 26-11.140625 6.558594 6.859375 15.785156 11.140625 26 11.140625 19.851562 0 36-16.148438 36-36v-227.132812c2.386719.679687 4.902344 1.050781 7.503906 1.050781zm-155.640625-195.917969c0-18.746094 15.253906-34 34-34s34 15.253906 34 34v8c0 18.746094-15.253906 34-34 34s-34-15.253906-34-34zm96 168.414062v-38.273437c0-5.523437-4.476562-10-10-10s-10 4.476563-10 10v70.144531h-84v-70.144531c0-5.523437-4.476562-10-10-10s-10 4.476563-10 10v38.128906c-.003906.078125-.011719.152344-.011719.230469v63.839844c0 6.613281-5.382812 11.992187-11.996093 11.992187-6.609376 0-11.992188-5.378906-11.992188-11.992187v-113.339844c0-31.429688 25.570312-57 57-57h58c31.429688 0 57 25.570312 57 57v22.832031c0 5.523438 4.476562 10 10 10h25.640625c6.640625 0 12.042969 5.402344 12.042969 12.042969s-5.402344 12.042969-12.042969 12.042969h-52.136719c-4.136718 0-7.503906-3.367188-7.503906-7.503907zm0 0"/><path d="m396.144531 308.230469c-5.394531-1.175781-10.730469 2.230469-11.914062 7.625l-38.664063 176.144531h-102.523437l-38.664063-176.144531c-1.1875-5.394531-6.515625-8.808594-11.914062-7.625-5.394532 1.1875-8.808594 6.519531-7.621094 11.914062l40.390625 184c1.003906 4.585938 5.070313 7.855469 9.765625 7.855469h118.609375c4.695313 0 8.761719-3.269531 9.769531-7.855469l40.390625-184c1.179688-5.394531-2.230469-10.726562-7.625-11.914062zm0 0"/><path d="m242.609375 384.59375-4.007813 4.007812c-3.902343 3.90625-3.90625 10.238282 0 14.144532 1.953126 1.953125 4.511719 2.929687 7.070313 2.929687s5.117187-.976562 7.070313-2.929687l4.007812-4.007813c3.90625-3.902343 3.90625-10.234375.003906-14.140625-3.90625-3.90625-10.238281-3.90625-14.144531-.003906zm0 0"/><path d="m328.9375 360.242188c1.953125 1.949218 4.511719 2.929687 7.074219 2.929687 2.558593 0 5.117187-.980469 7.070312-2.929687 3.902344-3.90625 3.902344-10.238282 0-14.144532l-4.007812-4.007812c-3.90625-3.902344-10.234375-3.902344-14.144531 0-3.902344 3.90625-3.902344 10.238281 0 14.144531zm0 0"/><path d="m220.535156 269.320312-3.105468 3.109376c-3.90625 3.902343-3.90625 10.234374 0 14.140624 1.953124 1.953126 4.511718 2.929688 7.070312 2.929688s5.117188-.976562 7.070312-2.929688l3.109376-3.105468c3.902343-3.90625 3.902343-10.238282 0-14.144532-3.90625-3.902343-10.238282-3.902343-14.144532 0zm0 0"/><path d="m237.691406 333.070312 28 28c1.953125 1.953126 4.511719 2.929688 7.070313 2.929688 2.558593 0 5.117187-.976562 7.070312-2.929688l28-28c3.90625-3.90625 3.90625-10.234374 0-14.140624l-28-28c-3.90625-3.90625-10.234375-3.90625-14.144531 0l-28 28c-3.902344 3.90625-3.902344 10.234374.003906 14.140624zm35.070313-20.925781 13.855469 13.855469-13.855469 13.855469-13.859375-13.855469zm0 0"/><path d="m270.761719 409.667969v40c0 5.519531 4.476562 10 10 10h40c5.523437 0 10-4.480469 10-10v-40c0-5.523438-4.476563-10-10-10h-40c-5.523438 0-10 4.476562-10 10zm20 10h20v20h-20zm0 0"/><path d="m54 387.671875c2.628906 0 5.210938-1.070313 7.070312-2.933594 1.859376-1.867187 2.929688-4.4375 2.929688-7.066406 0-2.632813-1.070312-5.210937-2.929688-7.070313-1.859374-1.871093-4.441406-2.929687-7.070312-2.929687s-5.210938 1.058594-7.070312 2.929687c-1.859376 1.859376-2.929688 4.4375-2.929688 7.070313 0 2.628906 1.070312 5.199219 2.929688 7.066406 1.859374 1.863281 4.441406 2.933594 7.070312 2.933594zm0 0"/></svg>